<svg width="3484" height="1437" viewBox="0 0 3484 1437" fill="none" xmlns="http://www.w3.org/2000/svg">
<path fill-rule="evenodd" clip-rule="evenodd" d="M1445.88 571.427H1420.45C1403.01 571.427 1388.87 585.564 1388.87 602.991V654.146C1388.87 671.587 1374.75 685.725 1357.3 685.725H1202.32C1184.88 685.725 1170.76 671.587 1170.76 654.146V602.991C1170.76 585.564 1156.62 571.427 1139.18 571.427H856.573C839.132 571.427 824.995 557.289 824.995 539.848V438.389C824.995 431.984 826.957 425.723 830.592 420.457L1098.47 32.6107C1104.37 24.0704 1114.09 18.978 1124.47 18.978H1279.49C1304.69 18.978 1319.72 47.0512 1305.77 68.0268L1119.55 348.067C1105.61 369.043 1120.64 397.116 1145.85 397.116C1163.29 397.116 1177.43 382.978 1177.43 365.537V326.774C1177.43 309.333 1191.55 295.195 1208.99 295.195H1357.3C1374.75 295.195 1388.87 309.333 1388.87 326.774V365.537C1388.87 382.978 1403.01 397.116 1420.45 397.116H1445.88C1463.32 397.116 1477.46 411.253 1477.46 428.68V539.848C1477.46 557.289 1463.32 571.427 1445.88 571.427" fill="#F0F0F0"/>
<path fill-rule="evenodd" clip-rule="evenodd" d="M1887.02 352.348C1887.02 239.955 1861.62 183.757 1810.83 183.757C1760.02 183.757 1734.62 239.955 1734.62 352.348C1734.62 464.74 1760.02 520.935 1810.83 520.935C1861.62 520.935 1887.02 464.74 1887.02 352.348ZM1654.14 659.523C1608.74 631.902 1573.19 591.898 1547.46 539.512C1521.74 487.124 1508.89 424.739 1508.89 352.348C1508.89 279.956 1521.74 217.564 1547.46 165.176C1573.19 112.789 1608.74 72.7881 1654.14 45.1742C1699.53 17.5421 1751.77 3.72593 1810.83 3.72593C1869.87 3.72593 1922.11 17.5421 1967.5 45.1742C2012.9 72.7881 2048.47 112.789 2074.2 165.176C2099.92 217.564 2112.77 279.956 2112.77 352.348C2112.77 424.739 2099.92 487.124 2074.2 539.512C2048.47 591.898 2012.9 631.902 1967.5 659.523C1922.11 687.148 1869.87 700.958 1810.83 700.958C1751.77 700.958 1699.53 687.148 1654.14 659.523Z" fill="#F0F0F0"/>
<path fill-rule="evenodd" clip-rule="evenodd" d="M2783.19 571.416H2757.75C2740.32 571.416 2726.18 585.551 2726.18 602.988V654.141C2726.18 671.578 2712.04 685.713 2694.59 685.713H2539.61C2522.19 685.713 2508.05 671.578 2508.05 654.141V602.988C2508.05 585.551 2493.92 571.416 2476.48 571.416H2193.87C2176.44 571.416 2162.3 557.281 2162.3 539.844V438.385C2162.3 431.976 2164.24 425.717 2167.89 420.442L2435.76 32.5951C2441.67 24.0589 2451.38 18.9669 2461.74 18.9669H2616.78C2641.97 18.9669 2657.02 47.0356 2643.08 68.0207L2456.86 348.052C2442.89 369.034 2457.94 397.105 2483.15 397.105C2500.58 397.105 2514.72 382.97 2514.72 365.533V326.761C2514.72 309.324 2528.84 295.189 2546.29 295.189H2694.59C2712.04 295.189 2726.18 309.324 2726.18 326.761V365.533C2726.18 382.97 2740.32 397.105 2757.75 397.105H2783.19C2800.61 397.105 2814.75 411.24 2814.75 428.677V539.844C2814.75 557.281 2800.61 571.416 2783.19 571.416" fill="#F0F0F0"/>
<path fill-rule="evenodd" clip-rule="evenodd" d="M1391.49 568.015H1366.04C1348.61 568.015 1334.48 582.15 1334.48 599.582V650.737C1334.48 668.17 1320.34 682.304 1302.9 682.304H1147.91C1130.49 682.304 1116.35 668.17 1116.35 650.737V599.582C1116.35 582.15 1102.21 568.015 1084.77 568.015H802.164C784.732 568.015 770.597 553.88 770.597 536.434V434.983C770.597 428.571 772.542 422.314 776.178 417.043L1044.07 29.192C1049.96 20.652 1059.67 15.5646 1070.05 15.5646H1225.09C1250.29 15.5646 1265.33 43.6367 1251.37 64.6203L1065.16 344.65C1051.21 365.634 1066.24 393.706 1091.45 393.706C1108.89 393.706 1123.02 379.571 1123.02 362.125V323.357C1123.02 305.924 1137.15 291.79 1154.59 291.79H1302.9C1320.34 291.79 1334.48 305.924 1334.48 323.357V362.125C1334.48 379.571 1348.61 393.706 1366.04 393.706H1391.49C1408.91 393.706 1423.06 407.841 1423.06 425.273V536.434C1423.06 553.88 1408.91 568.015 1391.49 568.015" fill="#C2C2FA"/>
<path fill-rule="evenodd" clip-rule="evenodd" d="M1832.63 348.931C1832.63 236.547 1807.23 180.346 1756.43 180.346C1705.6 180.346 1680.22 236.547 1680.22 348.931C1680.22 461.33 1705.6 517.526 1756.43 517.526C1807.23 517.526 1832.63 461.33 1832.63 348.931ZM1599.73 656.115C1554.33 628.494 1518.76 588.489 1493.05 536.102C1467.34 483.715 1454.48 421.33 1454.48 348.931C1454.48 276.539 1467.34 214.15 1493.05 161.763C1518.76 109.376 1554.33 69.3841 1599.73 41.7514C1645.12 14.1368 1697.36 0.320512 1756.43 0.320512C1815.47 0.320512 1867.69 14.1368 1913.1 41.7514C1958.51 69.3841 1994.06 109.376 2019.78 161.763C2045.51 214.15 2058.37 276.539 2058.37 348.931C2058.37 421.33 2045.51 483.715 2019.78 536.102C1994.06 588.489 1958.51 628.494 1913.1 656.115C1867.69 683.739 1815.47 697.55 1756.43 697.55C1697.36 697.55 1645.12 683.739 1599.73 656.115Z" fill="#C2C2FA"/>
<path fill-rule="evenodd" clip-rule="evenodd" d="M2728.76 568.017H2703.32C2685.89 568.017 2671.75 582.153 2671.75 599.589V650.742C2671.75 668.18 2657.61 682.313 2640.18 682.313H2485.2C2467.76 682.313 2453.62 668.18 2453.62 650.742V599.589C2453.62 582.153 2439.49 568.017 2422.05 568.017H2139.44C2122.01 568.017 2107.87 553.881 2107.87 536.445V434.987C2107.87 428.577 2109.83 422.32 2113.47 417.043L2381.34 29.1991C2387.25 20.6617 2396.97 15.5668 2407.34 15.5668H2562.36C2587.56 15.5668 2602.61 43.6406 2588.65 64.6216L2402.43 344.653C2388.47 365.638 2403.52 393.707 2428.72 393.707C2446.15 393.707 2460.29 379.573 2460.29 362.135V323.362C2460.29 305.926 2474.43 291.79 2491.86 291.79H2640.18C2657.61 291.79 2671.75 305.926 2671.75 323.362V362.135C2671.75 379.573 2685.89 393.707 2703.32 393.707H2728.76C2746.2 393.707 2760.33 407.843 2760.33 425.279V536.445C2760.33 553.881 2746.2 568.017 2728.76 568.017" fill="#C2C2FA"/>
<path fill-rule="evenodd" clip-rule="evenodd" d="M293.701 1092.33C391.373 1092.33 472.16 1061 538.6 997.787C618.08 922.161 664.08 814.667 708.573 710.707C758.853 593.201 806.346 482.214 893.08 454.454C931.293 442.227 966.066 446.334 999.346 467.041C1145.71 558.121 1201.17 920.721 1201.72 924.374L1251.17 917.014C1248.81 901.174 1191.55 527.761 1025.76 424.601C979.92 396.054 930.146 390.081 877.84 406.827C769.346 441.561 717.493 562.747 662.6 691.041C577.28 890.401 489.08 1096.56 182.053 1029.17L33.5212 981.121C20.3879 976.881 6.2945 984.081 2.04783 997.214C-2.2015 1010.35 5.00783 1024.45 18.1478 1028.69L170.101 1077.75C214.03 1087.47 255.181 1092.33 293.701 1092.33Z" fill="#442F86"/>
<path fill-rule="evenodd" clip-rule="evenodd" d="M1138.67 1339.28L1085.45 1081.3C1067.08 992.203 1118.98 903.629 1205.66 876.083C1302.65 845.269 1405.66 902.069 1431.36 1000.55L1496.65 1250.78L1138.67 1339.28Z" fill="url(#paint0_linear_179_75160)"/>
<path fill-rule="evenodd" clip-rule="evenodd" d="M1138.77 1346.11C1144.49 1369.85 1230.3 1369.55 1330.4 1345.43C1430.52 1321.32 1507.04 1282.52 1501.31 1258.79C1495.6 1235.04 1409.8 1235.35 1309.69 1259.47C1209.58 1283.57 1133.07 1322.38 1138.77 1346.11Z" fill="#9186DD"/>
<path fill-rule="evenodd" clip-rule="evenodd" d="M1354.95 1276.12C1353.51 1284.12 1367.83 1293.4 1386.93 1296.83C1406.04 1300.27 1422.7 1296.55 1424.12 1288.53C1425.56 1280.52 1411.24 1271.25 1392.14 1267.81C1373.04 1264.39 1356.39 1268.11 1354.95 1276.12" fill="#442F86"/>
<path fill-rule="evenodd" clip-rule="evenodd" d="M1228.78 1314.8C1227.34 1322.81 1241.66 1332.09 1260.77 1335.52C1279.88 1338.95 1296.53 1335.23 1297.97 1327.23C1299.4 1319.21 1285.08 1309.94 1265.97 1306.51C1246.88 1303.08 1230.22 1306.79 1228.78 1314.8" fill="#442F86"/>
<path fill-rule="evenodd" clip-rule="evenodd" d="M1298.98 906.321C1298.98 906.321 1376.19 934.402 1400.75 1015.09C1425.3 1095.8 1446.36 1199.31 1446.36 1199.31L1376.19 1201.07L1298.98 906.321Z" fill="#BBD1F5"/>
<path fill-rule="evenodd" clip-rule="evenodd" d="M1231.01 814.881L1193.73 880.014L1242.85 868.601L1231.01 814.881Z" fill="#442F86"/>
<path fill-rule="evenodd" clip-rule="evenodd" d="M2135.82 1308.07L2124.09 1329.28L2135.82 1308.07ZM3483.69 746.746L3463.8 790.945C3460.35 789.392 3378.25 751.312 3302.91 617.173C3281.12 578.397 3247.7 533.04 3212.25 537.221C3186.83 540.223 3119.38 576.347 3042.68 846.253C2959.05 1140.6 2780.2 1332.93 2511.07 1417.88C2336.87 1472.87 2121.47 1355.51 2112.38 1350.48L2135.82 1308.07C2138.52 1309.56 2342.51 1420.27 2496.47 1371.67C2749.08 1291.92 2917.19 1110.69 2996.08 833.012C3059.2 610.855 3128.04 498.36 3206.56 489.089C3256.31 483.213 3302.94 518.328 3345.15 593.43C3412.79 713.817 3482.99 746.428 3483.69 746.746" fill="#442F86"/>
<path fill-rule="evenodd" clip-rule="evenodd" d="M1686.08 1131.72L1813.74 1224.24C1824.42 1231.96 1826.8 1246.88 1819.06 1257.55C1811.34 1268.21 1796.41 1270.6 1785.74 1262.87L1658.09 1170.36C1647.42 1162.63 1645.04 1147.72 1652.77 1137.05C1660.51 1126.37 1675.41 1124 1686.08 1131.72" fill="#442F86"/>
<path fill-rule="evenodd" clip-rule="evenodd" d="M1784.56 990.016L1912.22 1082.52C1922.89 1090.26 1925.28 1105.18 1917.55 1115.84C1909.8 1126.51 1894.9 1128.9 1884.23 1121.16L1756.56 1028.66C1745.9 1020.92 1743.51 1006 1751.26 995.336C1758.98 984.67 1773.89 982.283 1784.56 990.016Z" fill="#442F86"/>
<path fill-rule="evenodd" clip-rule="evenodd" d="M2231.23 1358.15L2151.99 1369.96L2173.93 1325.79L2248.84 1355.29L2231.23 1358.15" fill="#442F86"/>
<path fill-rule="evenodd" clip-rule="evenodd" d="M1695.82 1264.09L1916.66 1407.66C1992.93 1457.25 2094.32 1441.21 2151.56 1370.52C2215.61 1291.42 2200.26 1174.8 2117.92 1114.98L1908.7 962.983L1695.82 1264.09Z" fill="url(#paint1_linear_179_75160)"/>
<path fill-rule="evenodd" clip-rule="evenodd" d="M1769.85 1274.62L1820.69 1205.82L2081.54 1393.71C2081.54 1393.71 2019.02 1424.86 1947.03 1389.87C1875.07 1354.88 1769.85 1274.62 1769.85 1274.62Z" fill="#BBD1F5"/>
<defs>
<linearGradient id="paint0_linear_179_75160" x1="1682.58" y1="936.801" x2="1244.91" y2="1037.85" gradientUnits="userSpaceOnUse">
<stop stop-color="#60B0E2"/>
<stop offset="1" stop-color="#916EB0"/>
</linearGradient>
<linearGradient id="paint1_linear_179_75160" x1="3053.06" y1="1109.63" x2="3309.94" y2="440.454" gradientUnits="userSpaceOnUse">
<stop stop-color="#60B0E2"/>
<stop offset="1" stop-color="#916EB0"/>
</linearGradient>
</defs>
</svg>
