<svg width="13" height="13" viewBox="0 0 13 13" fill="none" xmlns="http://www.w3.org/2000/svg">
<path d="M11.2457 4.40725C11.2404 4.01508 11.167 3.62681 11.0287 3.25981C10.9088 2.95024 10.7256 2.6691 10.4908 2.43435C10.2561 2.1996 9.97491 2.01639 9.66535 1.89644C9.30306 1.76045 8.92033 1.68691 8.53344 1.67897C8.03531 1.6567 7.87739 1.65049 6.61292 1.65049C5.34845 1.65049 5.18638 1.65049 4.69188 1.67897C4.30517 1.68697 3.92261 1.76051 3.56049 1.89644C3.25088 2.01631 2.96969 2.19948 2.73493 2.43425C2.50017 2.66901 2.31699 2.9502 2.19713 3.25981C2.06086 3.62182 1.98748 4.00446 1.98017 4.3912C1.9579 4.88984 1.95117 5.04777 1.95117 6.31224C1.95117 7.5767 1.95117 7.73826 1.98017 8.23327C1.98794 8.62059 2.06095 9.00272 2.19713 9.3657C2.31719 9.67522 2.5005 9.95629 2.73535 10.191C2.97019 10.4256 3.2514 10.6087 3.56101 10.7285C3.92214 10.87 4.30476 10.9488 4.6924 10.9616C5.19104 10.9838 5.34897 10.9906 6.61344 10.9906C7.8779 10.9906 8.03997 10.9906 8.53447 10.9616C8.92135 10.9539 9.30411 10.8806 9.66638 10.7446C9.97587 10.6245 10.2569 10.4413 10.4917 10.2065C10.7264 9.97179 10.9097 9.69072 11.0297 9.38123C11.1659 9.01877 11.2389 8.63664 11.2467 8.24881C11.269 7.75068 11.2757 7.59275 11.2757 6.32777C11.2747 5.06331 11.2747 4.90279 11.2457 4.40725ZM6.60981 8.70343C5.28735 8.70343 4.21603 7.63211 4.21603 6.30965C4.21603 4.98719 5.28735 3.91586 6.60981 3.91586C7.24468 3.91586 7.85355 4.16806 8.30247 4.61699C8.7514 5.06591 9.0036 5.67478 9.0036 6.30965C9.0036 6.94452 8.7514 7.55339 8.30247 8.00231C7.85355 8.45123 7.24468 8.70343 6.60981 8.70343ZM9.09887 4.38551C8.78975 4.38551 8.54069 4.13593 8.54069 3.82732C8.54069 3.75405 8.55512 3.6815 8.58316 3.61381C8.61119 3.54612 8.65229 3.48461 8.7041 3.4328C8.75591 3.38099 8.81741 3.3399 8.88511 3.31186C8.9528 3.28382 9.02535 3.26939 9.09862 3.26939C9.17188 3.26939 9.24443 3.28382 9.31212 3.31186C9.37982 3.3399 9.44132 3.38099 9.49313 3.4328C9.54494 3.48461 9.58604 3.54612 9.61407 3.61381C9.64211 3.6815 9.65654 3.75405 9.65654 3.82732C9.65654 4.13593 9.40696 4.38551 9.09887 4.38551Z" fill="white"/>
<path d="M6.60964 7.86434C7.46842 7.86434 8.16459 7.16816 8.16459 6.30938C8.16459 5.45061 7.46842 4.75443 6.60964 4.75443C5.75086 4.75443 5.05469 5.45061 5.05469 6.30938C5.05469 7.16816 5.75086 7.86434 6.60964 7.86434Z" fill="white"/>
</svg>
