<svg width="12" height="11" viewBox="0 0 12 11" fill="none" xmlns="http://www.w3.org/2000/svg">
<path d="M11.9329 1.66304C11.5006 1.85462 11.0361 1.98407 10.5478 2.04259C11.0516 1.74112 11.4286 1.26665 11.6083 0.7077C11.1349 0.988859 10.6169 1.18677 10.0766 1.29281C9.71332 0.904911 9.23212 0.647804 8.70773 0.561408C8.18334 0.475012 7.64509 0.564161 7.17655 0.815015C6.70802 1.06587 6.33541 1.46439 6.11657 1.94871C5.89774 2.43303 5.84493 2.97605 5.96633 3.49346C5.0072 3.4453 4.06892 3.19601 3.21238 2.76176C2.35583 2.32751 1.60016 1.71801 0.994422 0.972813C0.787302 1.33009 0.668208 1.74433 0.668208 2.1855C0.667977 2.58265 0.765779 2.97371 0.952935 3.324C1.14009 3.67429 1.41082 3.97296 1.74109 4.19352C1.35806 4.18134 0.983482 4.07784 0.648532 3.89165V3.92271C0.648493 4.47973 0.84117 5.01961 1.19387 5.45074C1.54657 5.88187 2.03757 6.17769 2.58355 6.28802C2.22823 6.38419 1.8557 6.39835 1.4941 6.32945C1.64814 6.80873 1.94821 7.22784 2.35228 7.52811C2.75636 7.82838 3.24422 7.99478 3.74756 8.00401C2.89311 8.67477 1.83786 9.03862 0.751574 9.03702C0.55915 9.03707 0.366889 9.02583 0.175781 9.00336C1.27842 9.71232 2.56198 10.0886 3.87287 10.0871C8.31041 10.0871 10.7363 6.41178 10.7363 3.2242C10.7363 3.12064 10.7337 3.01605 10.729 2.91249C11.2009 2.57125 11.6082 2.14868 11.9319 1.66459L11.9329 1.66304Z" fill="white"/>
</svg>
