<svg width="14" height="16" viewBox="0 0 14 16" fill="none" xmlns="http://www.w3.org/2000/svg">
<path d="M7.00065 12.6667C7.13251 12.6667 7.2614 12.6276 7.37103 12.5543C7.48066 12.4811 7.56611 12.3769 7.61657 12.2551C7.66703 12.1333 7.68023 11.9993 7.65451 11.8699C7.62878 11.7406 7.56529 11.6218 7.47206 11.5286C7.37882 11.4354 7.26003 11.3719 7.13071 11.3461C7.00139 11.3204 6.86735 11.3336 6.74553 11.3841C6.62371 11.4345 6.51959 11.52 6.44634 11.6296C6.37308 11.7393 6.33398 11.8681 6.33398 12C6.33398 12.1768 6.40422 12.3464 6.52925 12.4714C6.65427 12.5964 6.82384 12.6667 7.00065 12.6667ZM10.334 12.6667C10.4658 12.6667 10.5947 12.6276 10.7044 12.5543C10.814 12.4811 10.8994 12.3769 10.9499 12.2551C11.0004 12.1333 11.0136 11.9993 10.9878 11.8699C10.9621 11.7406 10.8986 11.6218 10.8054 11.5286C10.7122 11.4354 10.5934 11.3719 10.464 11.3461C10.3347 11.3204 10.2007 11.3336 10.0789 11.3841C9.95705 11.4345 9.85293 11.52 9.77967 11.6296C9.70642 11.7393 9.66732 11.8681 9.66732 12C9.66732 12.1768 9.73756 12.3464 9.86258 12.4714C9.9876 12.5964 10.1572 12.6667 10.334 12.6667ZM10.334 10C10.4658 10 10.5947 9.9609 10.7044 9.88765C10.814 9.81439 10.8994 9.71027 10.9499 9.58846C11.0004 9.46664 11.0136 9.33259 10.9878 9.20327C10.9621 9.07395 10.8986 8.95516 10.8054 8.86193C10.7122 8.76869 10.5934 8.7052 10.464 8.67948C10.3347 8.65375 10.2007 8.66695 10.0789 8.71741C9.95705 8.76787 9.85293 8.85332 9.77967 8.96295C9.70642 9.07259 9.66732 9.20148 9.66732 9.33333C9.66732 9.51014 9.73756 9.67971 9.86258 9.80474C9.9876 9.92976 10.1572 10 10.334 10ZM7.00065 10C7.13251 10 7.2614 9.9609 7.37103 9.88765C7.48066 9.81439 7.56611 9.71027 7.61657 9.58846C7.66703 9.46664 7.68023 9.33259 7.65451 9.20327C7.62878 9.07395 7.56529 8.95516 7.47206 8.86193C7.37882 8.76869 7.26003 8.7052 7.13071 8.67948C7.00139 8.65375 6.86735 8.66695 6.74553 8.71741C6.62371 8.76787 6.51959 8.85332 6.44634 8.96295C6.37308 9.07259 6.33398 9.20148 6.33398 9.33333C6.33398 9.51014 6.40422 9.67971 6.52925 9.80474C6.65427 9.92976 6.82384 10 7.00065 10ZM11.6673 2H11.0007V1.33333C11.0007 1.15652 10.9304 0.986953 10.8054 0.861929C10.6804 0.736905 10.5108 0.666667 10.334 0.666667C10.1572 0.666667 9.9876 0.736905 9.86258 0.861929C9.73756 0.986953 9.66732 1.15652 9.66732 1.33333V2H4.33398V1.33333C4.33398 1.15652 4.26375 0.986953 4.13872 0.861929C4.0137 0.736905 3.84413 0.666667 3.66732 0.666667C3.49051 0.666667 3.32094 0.736905 3.19591 0.861929C3.07089 0.986953 3.00065 1.15652 3.00065 1.33333V2H2.33398C1.80355 2 1.29484 2.21071 0.919771 2.58579C0.544698 2.96086 0.333984 3.46957 0.333984 4V13.3333C0.333984 13.8638 0.544698 14.3725 0.919771 14.7475C1.29484 15.1226 1.80355 15.3333 2.33398 15.3333H11.6673C12.1978 15.3333 12.7065 15.1226 13.0815 14.7475C13.4566 14.3725 13.6673 13.8638 13.6673 13.3333V4C13.6673 3.46957 13.4566 2.96086 13.0815 2.58579C12.7065 2.21071 12.1978 2 11.6673 2ZM12.334 13.3333C12.334 13.5101 12.2637 13.6797 12.1387 13.8047C12.0137 13.9298 11.8441 14 11.6673 14H2.33398C2.15717 14 1.9876 13.9298 1.86258 13.8047C1.73756 13.6797 1.66732 13.5101 1.66732 13.3333V7.33333H12.334V13.3333ZM12.334 6H1.66732V4C1.66732 3.82319 1.73756 3.65362 1.86258 3.5286C1.9876 3.40357 2.15717 3.33333 2.33398 3.33333H3.00065V4C3.00065 4.17681 3.07089 4.34638 3.19591 4.4714C3.32094 4.59643 3.49051 4.66667 3.66732 4.66667C3.84413 4.66667 4.0137 4.59643 4.13872 4.4714C4.26375 4.34638 4.33398 4.17681 4.33398 4V3.33333H9.66732V4C9.66732 4.17681 9.73756 4.34638 9.86258 4.4714C9.9876 4.59643 10.1572 4.66667 10.334 4.66667C10.5108 4.66667 10.6804 4.59643 10.8054 4.4714C10.9304 4.34638 11.0007 4.17681 11.0007 4V3.33333H11.6673C11.8441 3.33333 12.0137 3.40357 12.1387 3.5286C12.2637 3.65362 12.334 3.82319 12.334 4V6ZM3.66732 10C3.79917 10 3.92807 9.9609 4.0377 9.88765C4.14733 9.81439 4.23278 9.71027 4.28324 9.58846C4.3337 9.46664 4.3469 9.33259 4.32117 9.20327C4.29545 9.07395 4.23196 8.95516 4.13872 8.86193C4.04549 8.76869 3.9267 8.7052 3.79738 8.67948C3.66806 8.65375 3.53401 8.66695 3.4122 8.71741C3.29038 8.76787 3.18626 8.85332 3.113 8.96295C3.03975 9.07259 3.00065 9.20148 3.00065 9.33333C3.00065 9.51014 3.07089 9.67971 3.19591 9.80474C3.32094 9.92976 3.49051 10 3.66732 10ZM3.66732 12.6667C3.79917 12.6667 3.92807 12.6276 4.0377 12.5543C4.14733 12.4811 4.23278 12.3769 4.28324 12.2551C4.3337 12.1333 4.3469 11.9993 4.32117 11.8699C4.29545 11.7406 4.23196 11.6218 4.13872 11.5286C4.04549 11.4354 3.9267 11.3719 3.79738 11.3461C3.66806 11.3204 3.53401 11.3336 3.4122 11.3841C3.29038 11.4345 3.18626 11.52 3.113 11.6296C3.03975 11.7393 3.00065 11.8681 3.00065 12C3.00065 12.1768 3.07089 12.3464 3.19591 12.4714C3.32094 12.5964 3.49051 12.6667 3.66732 12.6667Z" fill="#FFA454"/>
</svg>
